<?xml version="1.0" standalone="no"?>
<!DOCTYPE svg PUBLIC "-//W3C//DTD SVG 20010904//EN"
 "http://www.w3.org/TR/2001/REC-SVG-20010904/DTD/svg10.dtd">
<svg version="1.0" xmlns="http://www.w3.org/2000/svg"
 width="256.000000pt" height="256.000000pt" viewBox="0 0 256.000000 256.000000"
 preserveAspectRatio="xMidYMid meet">

<g transform="translate(0.000000,256.000000) scale(0.100000,-0.100000)"
fill="#000000" stroke="none">
<path d="M0 1280 l0 -1280 1280 0 1280 0 0 1280 0 1280 -1280 0 -1280 0 0
-1280z m1162 1088 c58 -25 111 -81 169 -178 56 -95 107 -146 159 -160 37 -10
51 -8 132 20 61 21 94 28 101 21 14 -14 -28 -80 -123 -191 -45 -52 -94 -112
-108 -132 -16 -22 -33 -36 -42 -33 -8 2 -64 9 -125 16 -196 21 -415 1 -618
-57 l-88 -25 -86 78 c-166 149 -223 206 -223 225 0 22 21 23 118 3 69 -15 75
-14 115 3 60 28 81 55 136 180 60 136 77 161 140 201 95 61 240 73 343 29z
m-408 -857 c3 -4 3 -11 0 -14 -8 -7 -44 4 -44 14 0 12 37 12 44 0z m31 -1 c3
-5 1 -10 -4 -10 -6 0 -11 5 -11 10 0 6 2 10 4 10 3 0 8 -4 11 -10z m275 -16
c0 -8 -4 -12 -10 -9 -5 3 -10 10 -10 16 0 5 5 9 10 9 6 0 10 -7 10 -16z m75 7
c-6 -5 -20 -12 -32 -16 -17 -5 -23 -2 -23 9 0 11 10 16 32 16 19 0 28 -4 23
-9z m-255 -126 c11 -10 20 -24 20 -32 0 -22 -29 -27 -50 -8 -18 17 -20 17 -26
1 -4 -10 -2 -22 5 -29 18 -18 13 -36 -13 -43 -39 -9 -64 11 -68 54 -2 25 -7
36 -16 34 -22 -4 -8 22 19 36 31 17 104 9 129 -13z"/>
</g>
</svg>
